<svg xmlns="http://www.w3.org/2000/svg" version="1.1" xmlns:xlink="http://www.w3.org/1999/xlink" xmlns:svgjs="http://svgjs.dev/svgjs" width="2000" height="2500" viewBox="0 0 2000 1500"><rect width="2000" height="1500" fill="#000000"></rect><g transform="matrix(0.75,0,0,0.75,250,147.375)"><svg viewBox="0 0 448 360" data-background-color="#000000" preserveAspectRatio="xMidYMid meet" height="1607" width="2000" xmlns="http://www.w3.org/2000/svg" xmlns:xlink="http://www.w3.org/1999/xlink"><g id="tight-bounds" transform="matrix(1,0,0,1,0,0)"><svg viewBox="0 0 448 360" height="360" width="448"><g><svg></svg></g><g><svg viewBox="0 0 448 360" height="360" width="448"><g><path d="M193.855 44.683c1.378 0 2.494 1.116 2.495 2.494 0 1.378-1.116 2.494-2.495 2.495h-23.846l-17.167 17.167c-0.973 0.973-2.551 0.973-3.53 0-0.973-0.973-0.973-2.551 0-3.529l13.644-13.645h-40.378c-11.518 0-19.151 2.688-23.815 8.113-4.739 5.519-6.66 14.056-6.66 25.63 0 0.069 0 0.137-0.006 0.206l0.212 36.692 14.692-14.692c0.973-0.973 2.551-0.973 3.53 0 0.973 0.973 0.973 2.551 0 3.53l-18.178 18.178c0.206 35.832 0.193 71.358-0.013 107.19 25.486 25.2 50.617 50.312 75.811 75.791h25.38c1.378 0 2.494 1.116 2.495 2.495 0 1.378-1.116 2.494-2.495 2.494h-20.448l25.942 26.241 0.006-0.006c8.188 8.188 15.577 12.859 22.824 13.413 7.146 0.543 14.442-2.956 22.586-11.093l28.555-28.555h-20.722c-1.378 0-2.494-1.116-2.495-2.494 0-1.378 1.116-2.494 2.495-2.495h25.711l16.625-16.625c0.973-0.973 2.551-0.973 3.529 0 0.973 0.973 0.973 2.551 0 3.53l-13.101 13.102h40.377c11.518 0 19.151-2.688 23.815-8.113 4.739-5.519 6.66-14.056 6.66-25.63h0.013l-0.212-36.898-16.014 16.014c-0.973 0.973-2.551 0.973-3.53 0-0.973-0.973-0.973-2.551 0-3.53l19.5-19.5c-0.206-35.832-0.193-71.358 0.013-107.19-25.486-25.2-50.617-50.312-75.811-75.791h-26.147c-1.378 0-2.494-1.116-2.495-2.495 0-1.378 1.116-2.494 2.495-2.494h21.215l-25.824-26.123c-0.044-0.037-0.081-0.075-0.124-0.112-8.188-8.188-15.577-12.859-22.824-13.413-7.146-0.543-14.442 2.956-22.586 11.093l-28.555 28.555h18.858zM122.578 44.683h45.367l32.078-32.078c9.248-9.248 17.81-13.195 26.484-12.534 8.568 0.649 16.956 5.824 25.985 14.854 0.05 0.05 0.094 0.094 0.137 0.143l29.278 29.615h43.508c13.071 0 21.919 3.268 27.594 9.871 5.6 6.517 7.864 16.101 7.864 28.867 0 0.081-0.006 0.156-0.012 0.23l-0.225 39.742 28.43 28.112 0.006-0.006c9.03 9.03 14.206 17.411 14.854 25.985 0.661 8.674-3.293 17.236-12.534 26.484l-30.768 30.768 0.237 41.843h0.012c0 12.765-2.27 22.35-7.864 28.867-5.675 6.604-14.524 9.872-27.594 9.871h-45.366l-32.078 32.078c-9.248 9.248-17.81 13.195-26.484 12.534-8.568-0.649-16.956-5.824-25.985-14.854l0.006-0.006-29.421-29.758h-43.509c-13.071 0-21.919-3.268-27.594-9.872-5.6-6.517-7.864-16.101-7.863-28.866h0.012l0.231-39.972-28.293-27.969c-0.05-0.044-0.1-0.087-0.143-0.137-9.03-9.03-14.206-17.411-14.854-25.985-0.661-8.674 3.293-17.236 12.534-26.484l30.768-30.768-0.237-41.607c-0.006-0.075-0.012-0.156-0.012-0.23 0-12.765 2.27-22.35 7.864-28.867 5.675-6.604 14.524-9.872 27.594-9.871zM87.682 179.997l-0.274-47.724-27.276 27.276c-8.138 8.138-11.636 15.44-11.094 22.587 0.549 7.246 5.226 14.642 13.413 22.823 0.037 0.037 0.081 0.081 0.113 0.125l24.837 24.551 0.281-49.644zM92.303 241.483l-0.2 35.09h0.013c0 11.58 1.921 20.117 6.66 25.63 4.664 5.432 12.297 8.113 23.815 8.113h38.576l-33.55-33.936-35.308-34.903zM325.415 49.672h-38.575l33.549 33.936 35.308 34.902 0.2-34.884c-0.006-0.069-0.006-0.137-0.007-0.205 0-11.58-1.921-20.117-6.66-25.63-4.664-5.432-12.297-8.113-23.815-8.113zM360.599 130.352l-0.281 49.645 0.274 47.724 27.276-27.276c8.138-8.138 11.636-15.44 11.094-22.587-0.549-7.252-5.226-14.642-13.413-22.824l0.006-0.006-24.956-24.669z" fill="#ff2626" fill-rule="nonzero" stroke="none" stroke-width="1" stroke-linecap="butt" stroke-linejoin="miter" stroke-miterlimit="10" stroke-dasharray="" stroke-dashoffset="0" font-family="none" font-weight="none" font-size="none" text-anchor="none" style="mix-blend-mode: normal" data-fill-palette-color="tertiary"></path></g><g transform="matrix(1,0,0,1,143.162847960445,90)"><svg viewBox="0 0 161.67430407911002 180" height="180" width="161.67430407911002"><g><svg viewBox="0 0 161.67430407911002 180" height="180" width="161.67430407911002"><g><svg viewBox="0 0 161.67430407911002 180" height="180" width="161.67430407911002"><g id="textblocktransform"><svg viewBox="0 0 161.67430407911002 180" height="180" width="161.67430407911002" id="textblock"><g><svg viewBox="0 0 161.67430407911002 180" height="180" width="161.67430407911002"><path d="M161.296 38.607C160.536 19.923 158.37 14.728 158.37 14.728 151.719-4.516 143.419-0.368 135.963 2.397 122.798 2.509 109.687 6.62 96.553 8.824 68.986 9.161 41.183 3.63 13.752 17.27 11.175 21.455-2.673 18.092 0.458 40.998 1.279 50.527 4.274 61.102 4.183 69.846 4.593 71.378 5.163 67.866 5.406 70.07 6.258 76.012 7.649 73.209 8.789 76.722 7.2 86.101 8.34 93.911 9.427 102.095 7.512 104.225 5.057 103.216 3.955 110.278 3.841 115.398 3.225 114.426 2.548 114.202 2.054 114.052 1.059 114.613 1.226 116.22 1.796 121.713-0.651 124.889 0.884 130.27-0.173 136.099 1.614 141.144 1.37 147.459 1.34 148.73 1.507 149.813 1.773 150.112 2.951 151.719 1.234 154.858 1.416 158.258 13.501 181.501 26.612 165.433 38.994 176.12 42.209 168.647 39.792 178.773 41.076 177.204 42.08 175.373 42.809 182.959 43.942 178.661 44.116 177.428 43.85 174.514 44.474 175.074 44.801 175.373 45.089 175.298 45.135 173.579 45.203 171.001 44.603 172.608 44.443 171.263 46.169 164.462 45.743 180.642 47.362 179.969 47.286 177.989 46.815 175.149 47.78 175.522 48.738 172.682 48.768 170.328 49.619 176.718 49.65 178.101 49.802 179.072 50.045 179.745 52.705 172.795 55.35 182.211 58.14 179.072 59.85 175.635 61.492 180.941 63.225 179.633 63.833 178.587 64.448 176.718 65.033 179.857 72.201 180.53 79.84 177.727 86.635 179.969 104.793 175.784 124.197 181.688 143.343 176.158 147.858 174.028 152.547 171.001 156.948 168.572 156.948 168.572 160.513 161.921 160.513 132.026S161.273 105.869 161.387 82.065C161.501 58.262 162.033 57.29 161.273 38.607Z" opacity="1" fill="#ff2626" data-fill-palette-color="tertiary"></path><g transform="matrix(1,0,0,1,31.584000000000003,19.1)"><svg width="98.50630407911001" viewBox="0.05 -38.85 28.099999999999998 40.45" height="141.8" data-palette-color="#ffffff"><path d="M23.8-38.85Q25.85-37.5 27-35.33 28.15-33.15 28.15-30.95L28.15-30.95Q28.15-27.45 25.85-22.55L25.85-22.55 14.7 1.6 0.05-33.25 4.6-35.6 16.15-7.05 22.15-19.6Q23.2-22.25 23.7-23.7 24.2-25.15 24.2-26.55L24.2-26.55Q24.2-31.05 19.7-34.45L19.7-34.45 23.8-38.85Z" opacity="1" transform="matrix(1,0,0,1,0,0)" fill="#ffffff" class="wordmark-text-0" data-fill-palette-color="quaternary" id="text-0"></path></svg></g></svg></g></svg></g></svg></g><g></g></svg></g></svg></g></svg></g><defs></defs></svg><rect width="448" height="360" fill="none" stroke="none" visibility="hidden"></rect></g></svg></g></svg>